HIERARCHY
ROOT pelvis
{
  OFFSET 0 100 0
  CHANNELS 6 Xposition Yposition Zposition Zrotation Xrotation Yrotation
  JOINT pelvis_right_femur
  {
    OFFSET -10.78128 -3.44521 -0.5502486
    CHANNELS 3 Zrotation Xrotation Yrotation
    JOINT right_femur_tibia
    {
      OFFSET -0.8047443 -44.0398 -0.1307829
      CHANNELS 3 Zrotation Xrotation Yrotation
      JOINT right_tibia_foot
      {
        OFFSET 3.006224 -47.83518 -5
        CHANNELS 3 Zrotation Xrotation Yrotation
        End Site
        {
          OFFSET 0 -5 15
        }
      }
    }
  }
  JOINT pelvis_left_femur
  {
    OFFSET 10.78128 -3.44521 -0.5502486
    CHANNELS 3 Zrotation Xrotation Yrotation
    JOINT left_femur_tibia
    {
      OFFSET 0.8047443 -44.0398 -0.1307829
      CHANNELS 3 Zrotation Xrotation Yrotation
      JOINT left_tibia_foot
      {
        OFFSET -4.370144 -48.10324 -4.275266
        CHANNELS 3 Zrotation Xrotation Yrotation
        End Site
        {
          OFFSET 0 -5 15
        }
      }
    }
  }
  JOINT pelvis_spine1
  {
    OFFSET 0 6.468898 -3.129235
    CHANNELS 3 Zrotation Xrotation Yrotation
    JOINT spine1
    {
      OFFSET 0 23.15396 4.99043
      CHANNELS 3 Zrotation Xrotation Yrotation
      JOINT spine2
      {
        OFFSET 0 20.79997 -5.064912
        CHANNELS 3 Zrotation Xrotation Yrotation
        JOINT neck
        {
          OFFSET 0 14.38658 9.616178
          CHANNELS 3 Zrotation Xrotation Yrotation
          End Site
          {
            OFFSET 0 20 0
          }
        }
      }
      JOINT right_manubrium
      {
        OFFSET -5.722621 16.35077 3.967754
        CHANNELS 3 Zrotation Xrotation Yrotation
        JOINT right_clavicle
        {
          OFFSET -13.16364 1.694482 -4.693211
          CHANNELS 3 Zrotation Xrotation Yrotation
          JOINT right_humerus
          {
            OFFSET -28.5034 -0.3100689 -2.792744
            CHANNELS 3 Zrotation Xrotation Yrotation
            JOINT right_radius
            {
              OFFSET -25.15693 0.02248979 -1.271978
              CHANNELS 3 Zrotation Xrotation Yrotation
              End Site
              {
                OFFSET -15 0 0
              }
            }
          }
        }
      }
      JOINT left_manubrium
      {
        OFFSET 5.722621 16.35077 3.967754
        CHANNELS 3 Zrotation Xrotation Yrotation
        JOINT left_clavicle
        {
          OFFSET 13.16364 1.694482 -4.693211
          CHANNELS 3 Zrotation Xrotation Yrotation
          JOINT left_humerus
          {
            OFFSET 29.39168 -1.063119 -2.237045
            CHANNELS 3 Zrotation Xrotation Yrotation
            JOINT left_radius
            {
              OFFSET 24.59957 -0.9528479 0.9047498
              CHANNELS 3 Zrotation Xrotation Yrotation
              End Site
              {
                OFFSET 15 -0 -0
              }
            }
          }
        }
      }
    }
  }
}
MOTION
Frames: 6
Frame Time: 0.0416666666667
0 103.5113 0 2.116115 -1.339716 -0.1471907 1.910638 -10.41331 9.099142 9.133845e-06 35.22253 -5.83179e-06 -5.58515 -18.607 -3.696765 -7.94632 9.38401 -23.73761 -2.481984e-07 5.547465 -1.501636e-06 9.222922 -16.73338 28.54227 -4.926294 -5.099595 5.290517 2.166579 9.036216 -7.60245 1.385919 22.70504 6.412748 3.16621 -23.29701 8.671092 6.149109 -19.96151 11.33969 85.34499 35.83878 -19.11992 -3.623174e-07 1.356876e-06 16.36179 -6.9994 7.719574 3.916519 5.538154 -19.59244 -1.139976 -94.58293 29.82526 22.95119 8.450011e-07 1.052946e-06 -16.54166 4.065427 18.58551 8.727689
0.2944479 103.6456 1.460157 1.738088 -1.325365 -0.1624934 2.375532 -13.11108 9.035323 6.875408e-06 37.62046 -4.525582e-06 -5.537198 -17.51307 -3.910374 -7.703669 10.4461 -23.53142 -2.50145e-07 5.401193 -1.281996e-06 8.540162 -17.39055 27.37508 -4.619857 -4.510892 4.94456 2.224617 9.095398 -7.785831 1.313436 22.56842 6.591257 3.089417 -23.55841 8.892685 6.224579 -19.86782 11.3915 85.93181 35.74254 -19.51033 -2.479207e-07 9.906998e-07 16.33555 -6.963206 8.084456 4.021627 5.377678 -19.62941 -1.40689 -94.48473 29.8269 22.93872 6.070894e-07 7.674445e-07 -16.87804 4.016146 18.17322 9.10097
0.6012191 103.7756 2.992452 1.316488 -1.1081 -0.0282519 2.959971 -16.1249 8.804868 4.636562e-06 38.31022 -3.177754e-06 -5.568106 -16.21036 -3.94216 -7.395573 11.41771 -23.18658 -2.746991e-07 5.31034 -7.781327e-07 7.693654 -18.16802 26.09702 -4.239894 -3.863279 4.588669 2.324508 9.113921 -7.957776 1.22556 22.3836 6.824356 3.089701 -23.93 9.100394 6.2299 -19.72549 11.43454 86.44178 35.65421 -19.93041 -1.652942e-07 5.968196e-07 16.11844 -7.029977 8.396837 4.192489 5.365338 -19.77196 -1.659733 -94.25901 29.72659 22.70087 4.262263e-07 4.76267e-07 -17.5145 4.092445 17.73424 9.301044
0.9097175 103.8403 4.670561 0.9168394 -0.6652007 0.210618 3.568707 -19.16758 8.419962 2.540479e-06 37.24091 -1.903127e-06 -5.619408 -14.64756 -3.734192 -7.102257 12.2913 -22.75828 -3.525477e-07 5.310195 4.223095e-08 6.804188 -19.03055 24.86504 -3.846653 -3.275493 4.2764 2.448692 9.089953 -8.09835 1.13372 22.15043 7.109306 3.196493 -24.39908 9.280129 6.16414 -19.52974 11.45568 86.81601 35.57214 -20.39028 -6.53412e-08 1.874202e-07 15.69575 -7.22833 8.598703 4.398562 5.528322 -20.01947 -1.861285 -93.90156 29.52294 22.22785 3.145555e-07 1.867077e-07 -18.45642 4.288036 17.30938 9.287916
1.206916 103.7555 6.562896 0.5694327 -0.05886174 0.4960459 4.174637 -22.12651 7.933175 5.748961e-07 34.3035 -6.828078e-07 -5.604134 -12.98031 -3.338632 -6.834539 13.02878 -22.24792 -5.443561e-07 5.414268 1.002511e-06 5.909145 -19.98523 23.78141 -3.461027 -2.769005 4.046915 2.587141 9.036041 -8.200162 1.056606 21.89351 7.427913 3.397118 -24.90564 9.436937 6.019378 -19.30185 11.4596 87.10476 35.43317 -20.909 5.844869e-08 -1.898005e-07 15.13993 -7.598059 8.717998 4.629283 5.886509 -20.3778 -2.00532 -93.48778 29.21381 21.51529 2.36059e-07 -9.380232e-08 -19.72527 4.548492 16.89089 9.102818
1.482321 103.493 8.698673 0.2581068 0.6672127 0.7792007 4.745978 -24.75934 7.41609 -7.621275e-07 30.23987 6.065966e-08 -5.624971 -11.26876 -2.808897 -6.595617 13.58647 -21.71577 -7.742869e-07 5.73238 2.070083e-06 5.040146 -20.84092 22.8262 -3.093716 -2.359575 3.878057 2.739257 8.961348 -8.266991 0.9812015 21.59629 7.753623 3.664388 -25.43406 9.547391 5.859802 -19.04247 11.45119 87.17292 35.34624 -21.38141 1.480772e-07 -5.119655e-07 14.46314 -8.005738 8.751206 4.864981 6.330545 -20.76251 -2.084026 -92.97903 28.84934 20.71313 2.22062e-07 -3.280159e-07 -21.05028 4.84173 16.495 8.81058
